<?xml version="1.0" encoding="UTF-8" standalone="no"?>
<!-- Created with Inkscape (http://www.inkscape.org/) -->

<svg
   width="12"
   height="12"
   viewBox="0 0 3.1749999 3.175"
   version="1.1"
   id="svg1"
   xmlns="http://www.w3.org/2000/svg"
   xmlns:svg="http://www.w3.org/2000/svg">
  <defs
     id="defs1" />
  <g
     id="layer1">
    <path
       id="rect1"
       style="fill:#000000;fill-opacity:0.5;stroke-width:0.529167"
       d="M 0.52916666,0.26458333 A 0.26458332,0.26458332 0 0 0 0.26458333,0.52916666 V 2.6458333 A 0.26458332,0.26458332 0 0 0 0.52916666,2.9104166 H 2.6458333 A 0.26458332,0.26458332 0 0 0 2.9104166,2.6458333 V 0.52916666 A 0.26458332,0.26458332 0 0 0 2.6458333,0.26458333 Z m 0,0.26458333 H 2.6458333 V 0.79374999 2.38125 2.6458333 H 0.79374999 0.52916666 V 0.79374999 Z" />
    <path
       id="path7"
       style="fill:#000000;fill-opacity:0.5;stroke-width:0.529167"
       d="M 0.92604163,2.1166665 A 0.13229166,0.13229166 0 0 0 0.79374996,2.2489581 0.13229166,0.13229166 0 0 0 0.92604163,2.3812498 H 2.2489583 A 0.13229166,0.13229166 0 0 0 2.38125,2.2489581 0.13229166,0.13229166 0 0 0 2.2489583,2.1166665 H 0.93275956 a 0.13229166,0.13229166 0 0 0 -0.006718,0 z" />
    <path
       id="path8"
       style="fill:#000000;fill-opacity:0.5;stroke-width:0.529167"
       d="M 1.5874999,1.1906247 A 0.39687499,0.39687496 0 0 0 1.44694,1.2174967 C 1.429186,1.2879797 1.401501,1.480738 1.5874999,1.5874999 1.5817899,1.3722933 1.6673509,1.2504008 1.7037719,1.208195 a 0.39687499,0.39687496 0 0 0 -0.116272,-0.01757 z m 0,0.3968749 c 0.2152067,-0.00571 0.3370992,0.079851 0.379305,0.116272 a 0.39687496,0.39687499 0 0 0 0.01757,-0.116272 0.39687496,0.39687499 0 0 0 -0.026872,-0.1405598 C 1.8870197,1.429186 1.6942619,1.4015004 1.5874999,1.5874996 Z m 0,0 c 0.00571,0.2152067 -0.079851,0.3370992 -0.1162719,0.3793051 a 0.39687499,0.39687496 0 0 0 0.1162719,0.01757 0.39687499,0.39687496 0 0 0 0.1405599,-0.026872 c 0.017754,-0.070484 0.04544,-0.2632413 -0.1405599,-0.3700031 z m 0,0 C 1.3722933,1.5932096 1.2504008,1.5076485 1.2081949,1.4712277 a 0.39687496,0.39687499 0 0 0 -0.01757,0.1162719 0.39687496,0.39687499 0 0 0 0.026872,0.1405599 c 0.070483,0.017754 0.2632412,0.045439 0.370003,-0.1405599 z" />
  </g>
</svg>
