<?xml version="1.0" encoding="UTF-8" standalone="no"?>
<!-- Created with Inkscape (http://www.inkscape.org/) -->

<svg
   width="12"
   height="12"
   viewBox="0 0 3.1749999 3.175"
   version="1.1"
   id="svg1"
   xmlns="http://www.w3.org/2000/svg"
   xmlns:svg="http://www.w3.org/2000/svg">
  <defs
     id="defs1" />
  <g
     id="layer1">
    <path
       id="rect1"
       style="fill:#000000;fill-opacity:0.5;stroke-width:0.529167"
       d="M 0.52916666,0.26458333 A 0.26458332,0.26458332 0 0 0 0.26458333,0.52916666 V 2.6458333 A 0.26458332,0.26458332 0 0 0 0.52916666,2.9104166 H 2.6458333 A 0.26458332,0.26458332 0 0 0 2.9104166,2.6458333 V 0.52916666 A 0.26458332,0.26458332 0 0 0 2.6458333,0.26458333 Z m 0,0.26458333 H 2.6458333 V 0.79374999 2.38125 2.6458333 H 0.79374999 0.52916666 V 0.79374999 Z" />
    <path
       id="path7"
       style="fill:#000000;fill-opacity:0.5;stroke-width:0.529167"
       d="M 0.92604163,2.1166665 A 0.13229166,0.13229166 0 0 0 0.79374996,2.2489581 0.13229166,0.13229166 0 0 0 0.92604163,2.3812498 H 2.2489583 A 0.13229166,0.13229166 0 0 0 2.38125,2.2489581 0.13229166,0.13229166 0 0 0 2.2489583,2.1166665 H 0.93275956 a 0.13229166,0.13229166 0 0 0 -0.006718,0 z" />
  </g>
</svg>
